Complete name                    : An.American.Affair.2009.avi
Format                           : AVI
File size                        : 1.37 GiB
Duration                         : 1h 28mn
Overall bit rate                 : 2 204 Kbps

Video

Format                           : MPEG-4 Visual
Codec ID/Hint                    : XviD
Duration                         : 1h 28mn
Bit rate                         : 2 031 Kbps
Width                            : 718 pixels
Height                           : 552 pixels
Display aspect ratio             : 1.850
Stream size                      : 1.26 GiB (92%)
Writing library                  : XviD 1.1.2 (UTC 2006-11-01)

Audio

Format                           : MPEG Audio
Codec ID/Hint                    : MP3
Duration                         : 1h 28mn
Bit rate                         : 160 Kbps
Channel(s)                       : 2 channels
Sampling rate                    : 48.0 KHz
Stream size                      : 102 MiB (7%)


Text #1
Language                         : Swedish

Text #2
Language                         : Norwegian

Text #3
Language                         : Danish